Coordinates
version=1
nRows=16
nColumns=40
inDegrees=yes

Units are S.I. units (second, meters, Newtons, ...)
Angles are in degrees.

endheader
time	pelvis_tilt	pelvis_list	pelvis_rotation	pelvis_tx	pelvis_ty	pelvis_tz	hip_flexion_r	hip_adduction_r	hip_rotation_r	knee_angle_r	knee_angle_r_beta	ankle_angle_r	subtalar_angle_r	mtp_angle_r	hip_flexion_l	hip_adduction_l	hip_rotation_l	knee_angle_l	knee_angle_l_beta	ankle_angle_l	subtalar_angle_l	mtp_angle_l	lumbar_extension	lumbar_bending	lumbar_rotation	arm_flex_r	arm_add_r	arm_rot_r	elbow_flex_r	pro_sup_r	wrist_flex_r	wrist_dev_r	arm_flex_l	arm_add_l	arm_rot_l	elbow_flex_l	pro_sup_l	wrist_flex_l	wrist_dev_l
     40.71500000	     -7.52346744	     -4.76722282	      4.07366184	      1.00847280	      0.92168555	      0.42499430	      5.85310449	     -2.06151242	    -13.69097176	     29.61204651	     29.61204651	     12.94466909	     -2.67946866	    -12.72510343	     28.11912603	     -4.41736454	     -2.05916496	     25.51465270	     25.51465270	      8.17166175	    -15.04850135	      6.72498719	     -9.49575197	      5.35103987	      4.59453325	     29.71589667	    -15.22185311	      1.59214253	    105.65685833	     44.19541057	      0.00000000	      0.00000000	     -7.94081566	     -6.61100447	      2.78048472	     29.43838034	     44.01126247	      0.00000000	      0.00000000
     40.72714286	     -7.50708545	     -4.79762326	      3.87252958	      1.00860719	      0.92251454	      0.42260846	      7.08012473	     -2.53099114	    -12.96733132	     32.44905121	     32.44905121	     10.46482762	     -4.82886398	    -16.66564028	     27.46353216	     -4.39197207	     -2.23290309	     25.39628576	     25.39628576	      8.54533611	    -15.10622125	      6.58790426	     -9.42702733	      5.41230178	      4.36054133	     28.14324441	    -14.71276032	      0.92969986	    102.62331925	     44.35903618	      0.00000000	      0.00000000	     -7.56821600	     -6.99764383	      3.10935757	     31.14022723	     44.08470966	      0.00000000	      0.00000000
     40.73928571	     -7.41352175	     -4.70774738	      3.64190110	      1.00862155	      0.92322496	      0.42025676	      8.55584029	     -3.26953582	    -12.43153626	     35.99528187	     35.99528187	      8.98605809	     -5.84293309	    -17.19609960	     26.72912202	     -4.27338699	     -2.50491079	     25.31450133	     25.31450133	      8.95997249	    -15.04457164	      6.40197990	     -9.52956227	      5.35962134	      4.50273047	     26.17030594	    -14.90045330	      1.04272277	    100.87205837	     44.40855068	      0.00000000	      0.00000000	     -6.52883613	     -7.18822079	      3.02526907	     31.84055399	     44.12643255	      0.00000000	      0.00000000
     40.75142857	     -7.46403270	     -4.70870957	      3.35546077	      1.00839026	      0.92360694	      0.41819139	     10.36663966	     -3.79340422	    -11.58066063	     39.64013543	     39.64013543	      7.06658669	     -7.42063234	    -17.75945384	     26.16813197	     -4.25682719	     -2.74173592	     25.21865572	     25.21865572	      9.33172497	    -15.02379087	      6.19634547	     -9.45939101	      5.38468005	      4.70435264	     24.31468728	    -15.01501031	      0.66480358	     98.20055298	     44.50528295	      0.00000000	      0.00000000	     -5.59653403	     -7.45540986	      2.88842504	     32.82499448	     44.17902474	      0.00000000	      0.00000000
     40.76357143	     -7.31175400	     -4.64797006	      3.10933357	      1.00816778	      0.92403502	      0.41614684	     12.03421207	     -4.37171365	    -10.82499468	     43.32595526	     43.32595526	      5.05828828	     -8.82340436	    -17.98051229	     25.46371980	     -4.19665940	     -3.04796522	     25.27005988	     25.27005988	      9.71669147	    -15.01521454	      5.96675244	     -9.64103038	      5.40599952	      4.71366349	     22.45846731	    -14.79404154	      0.49412631	     95.81371433	     44.58349439	      0.00000000	      0.00000000	     -4.53469724	     -7.76500725	      2.74702581	     33.75529991	     44.22708633	      0.00000000	      0.00000000
     40.77571429	     -7.26918189	     -4.76605444	      2.87409984	      1.00775406	      0.92425798	      0.41448074	     13.89935637	     -4.52677132	     -9.79166152	     46.86642774	     46.86642774	      2.59900857	    -10.99119806	    -18.18702934	     24.89278657	     -4.33719347	     -3.27827096	     25.28365526	     25.28365526	     10.13609579	    -14.89075678	      5.48126995	     -9.56795267	      5.50484565	      4.17582750	     21.62592441	    -13.50342288	     -0.70864113	     90.49485303	     44.80645985	      0.00000000	      0.00000000	     -4.20309959	     -8.25141159	      2.47167675	     35.99290523	     44.34265573	      0.00000000	      0.00000000
     40.78785714	     -7.19302762	     -4.65912859	      2.58183589	      1.00720543	      0.92435362	      0.41268534	     15.84494694	     -5.05591278	     -8.99902097	     50.51268874	     50.51268874	      0.52046382	    -12.17985393	    -17.62682437	     24.28996207	     -4.23666057	     -3.60195344	     25.34862012	     25.34862012	     10.58935360	    -14.91337921	      5.23195554	     -9.72223203	      5.44172661	      4.28512331	     19.75917424	    -13.62240070	     -0.57423419	     88.30286954	     44.86801933	      0.00000000	      0.00000000	     -3.02452474	     -8.60448186	      2.26495614	     36.89202107	     44.40103078	      0.00000000	      0.00000000
     40.80000000	     -7.10046805	     -4.73566095	      2.34549235	      1.00648753	      0.92450384	      0.41116885	     17.87246383	     -5.21017357	     -8.16034840	     54.14348840	     54.14348840	     -0.47578082	    -12.87689333	    -13.68218069	     23.71833722	     -4.34122288	     -3.84681948	     25.42464475	     25.42464475	     10.99062185	    -14.82184404	      4.79524184	     -9.77953486	      5.54725342	      3.56024807	     19.29636689	    -12.74691028	     -0.56370766	     82.66372039	     45.06672604	      0.00000000	      0.00000000	     -2.71147128	     -9.12956884	      1.57375186	     39.29401000	     44.65717923	      0.00000000	      0.00000000
     40.81214286	     -6.95141165	     -4.64609157	      2.11302166	      1.00572005	      0.92467474	      0.40956299	     19.72299417	     -5.58140640	     -7.48177257	     57.28899471	     57.28899471	     -2.28818595	    -13.95643681	    -12.88882152	     23.06051687	     -4.25543163	     -4.14570112	     25.48083468	     25.48083468	     11.41905704	    -14.78097636	      4.59184713	    -10.04154017	      5.53721967	      3.62737467	     17.39531505	    -12.81081983	     -0.47672859	     80.68149271	     45.12155585	      0.00000000	      0.00000000	     -1.26627626	     -9.51259149	      1.36913488	     40.01352582	     44.71297286	      0.00000000	      0.00000000
     40.82428571	     -6.93529298	     -4.67272975	      1.78179470	      1.00477710	      0.92479719	      0.40824770	     21.73154735	     -5.65142970	     -6.71302249	     60.12765201	     60.12765201	     -3.67535285	    -15.10828843	    -11.27716796	     22.51368705	     -4.32391206	     -4.49319772	     25.45557214	     25.45557214	     11.90151800	    -14.66993674	      4.36091336	    -10.09831221	      5.60326228	      4.06904257	     15.70041174	    -13.09643512	     -0.78353181	     77.30975694	     45.23613070	      0.00000000	      0.00000000	      0.27811453	     -9.75752021	      1.19284972	     40.94046479	     44.77325870	      0.00000000	      0.00000000
     40.83642857	     -6.73999816	     -4.79251169	      1.59613356	      1.00384312	      0.92527583	      0.40700149	     23.60641828	     -5.67101492	     -6.27074037	     62.98022883	     62.98022883	     -2.69610432	    -14.56794136	     -4.29071905	     21.81199619	     -4.47440200	     -4.73000797	     25.46238215	     25.46238215	     12.39122346	    -14.44003712	      4.16692593	    -10.28830469	      5.78404069	      3.19754905	     15.75878838	    -11.95798142	     -1.21394829	     70.63030142	     45.45539032	      0.00000000	      0.00000000	      1.06692379	    -10.38036806	      0.78614668	     42.42775431	     45.00323883	      0.00000000	      0.00000000
     40.84857143	     -6.66837234	     -4.81594088	      1.32899441	      1.00279542	      0.92571564	      0.40578260	     25.36689590	     -5.72255678	     -5.81238866	     64.96643308	     64.96643308	     -3.57578020	    -15.42165808	     -3.65228068	     21.15034197	     -4.51798349	     -5.04829450	     25.30563506	     25.30563506	     12.76259301	    -14.25512209	      4.02913058	    -10.53481522	      5.92421902	      3.52138361	     13.91901298	    -12.36545125	     -1.19781705	     68.02703838	     45.53147940	      0.00000000	      0.00000000	      2.74884883	    -10.63553291	      0.61025218	     43.23833410	     45.06455572	      0.00000000	      0.00000000
     40.86071429	     -6.55468770	     -4.85554096	      1.06227987	      1.00184546	      0.92619851	      0.40483451	     26.99282791	     -5.74433856	     -5.52703535	     66.57626280	     66.57626280	     -3.96007729	    -16.14656719	     -2.98040459	     20.39582162	     -4.58169944	     -5.35082104	     25.08202316	     25.08202316	     13.21392946	    -14.10861533	      3.87397592	    -10.69359975	      6.00326783	      3.86009735	     12.25719312	    -12.61679750	     -1.22822430	     64.89630651	     45.62812907	      0.00000000	      0.00000000	      4.44892994	    -10.94306068	      0.50009809	     44.01687511	     45.11644211	      0.00000000	      0.00000000
     40.87285714	     -6.40642042	     -5.03479704	      0.86644953	      1.00079410	      0.92699257	      0.40403944	     28.48872622	     -5.61765627	     -5.45180872	     67.76179035	     67.76179035	     -3.52371115	    -16.26758869	     -0.78677556	     19.61585478	     -4.79657018	     -5.59351739	     24.82763344	     24.82763344	     13.56052698	    -13.82633444	      3.66086217	    -10.84381756	      6.22265486	      3.22056448	     12.43933939	    -11.81502821	     -1.83036217	     57.74942895	     45.87596777	      0.00000000	      0.00000000	      5.80329306	    -11.63693489	      0.81317724	     44.39668171	     45.17873010	      0.00000000	      0.00000000
     40.88500000	     -6.34206683	     -5.12831900	      0.60762698	      0.99972798	      0.92764384	      0.40333837	     29.96143875	     -5.52774267	     -5.35776220	     68.44490685	     68.44490685	     -3.46095383	    -16.73490798	     -0.57556240	     18.84225055	     -4.89473996	     -5.82794335	     24.43340516	     24.43340516	     13.86883019	    -13.70563434	      3.61496539	    -11.05856741	      6.38154892	      3.62551744	     10.54039451	    -12.33902314	     -1.65127787	     55.36449318	     45.93788174	      0.00000000	      0.00000000	      7.46399668	    -11.86331007	      0.58729034	     45.48404301	     45.24263079	      0.00000000	      0.00000000
     40.89714286	     -6.22433180	     -5.31435790	      0.33802010	      0.99863688	      0.92844951	      0.40285923	     31.24512864	     -5.31049242	     -5.37352016	     68.63541711	     68.63541711	     -3.14778002	    -16.92091255	     -0.20512965	     18.01906577	     -5.12280772	     -6.11913978	     24.05595448	     24.05595448	     14.16231616	    -13.48671445	      3.47442065	    -11.33411592	      6.62112556	      4.04823925	      9.23116215	    -12.73849181	     -1.55717500	     51.38814758	     46.05896590	      0.00000000	      0.00000000	      9.18039081	    -12.11587094	      0.54398236	     46.53629762	     45.29912191	      0.00000000	      0.00000000
